<svg xmlns="http://www.w3.org/2000/svg" width="10.933" height="20.73" viewBox="0 0 10.933 20.73">
  <path id="Path_8049" data-name="Path 8049" d="M99.845,95.172c.094-4.545-.082-8.82-.073-9.087.014-.38-2.393.157-2.689-.156s-.467-2.693-.074-2.9,2.168.167,2.543-.078-1.626-8.175,6.58-6.423a8.508,8.508,0,0,1-.15,2.976c-.131.206-1.794-.264-2.692.47s-.523,2.761-.336,2.9,2.851.029,3.028.235a7.781,7.781,0,0,1,0,2.976c-.206.2-2.94-.356-3.215-.157-.227.165.6,8.881.361,9.226s-1.092.316-1.632.329" transform="translate(-96.03 -75.524)" fill="none" stroke="#74b9ad" stroke-linecap="round" stroke-linejoin="round" stroke-miterlimit="10" stroke-width="1.5"/>
</svg>
