<svg xmlns="http://www.w3.org/2000/svg" width="21.121" height="23.597" viewBox="0 0 21.121 23.597">
  <g id="iconfinder_github_1390302" transform="translate(-30.78 -35.941)">
    <path id="Path_8046" data-name="Path 8046" d="M128.1,222.073" transform="translate(-85.952 -163.76)" fill="none" stroke="#74b9ad" stroke-linecap="round" stroke-linejoin="round" stroke-miterlimit="10" stroke-width="1.5"/>
    <path id="Path_8047" data-name="Path 8047" d="M38.355,58.647c.393-.084.267-2.265.267-3.317-2.425.373-3.254-.582-3.769-1.146a14.377,14.377,0,0,1-1.525-2.264c-.6-.966-1.676-.739-1.79-1.3s2.273-.407,3.987,1.7a2.306,2.306,0,0,0,3.277.635,3.63,3.63,0,0,1,.218-.938c.147-.387.549-.622.486-.887s-3.3-.087-5.152-2.677a6.517,6.517,0,0,1,.48-8.069,4.156,4.156,0,0,1,0-3.523,7.1,7.1,0,0,1,4.028,1.4,10.7,10.7,0,0,1,6.781-.013,6.178,6.178,0,0,1,3.738-1.566,4.134,4.134,0,0,1,.114,3.636,6.994,6.994,0,0,1,1.44,2.878,6.584,6.584,0,0,1-1.06,5.492c-1.88,2.421-5.01,2.049-5.151,2.384s.6.954.95,2.254a16.04,16.04,0,0,1,.2,3.785" transform="translate(0 0)" fill="none" stroke="#74b9ad" stroke-linecap="round" stroke-linejoin="round" stroke-miterlimit="10" stroke-width="1.5"/>
  </g>
</svg>
